<svg width="337" height="61" viewBox="0 0 337 61" fill="none" xmlns="http://www.w3.org/2000/svg">
<path d="M234.252 33.8485V9.82227H243.484L272.363 39.1745V9.82227H281.476V50.6551H272.244L243.365 21.3028V33.8485H234.252Z" fill="white"/>
<path d="M98.7356 9.58594C94.4747 9.58594 91.2791 10.6511 88.912 12.6632C86.5449 14.6752 85.3613 17.6341 85.3613 21.6582C85.3613 25.564 86.5449 28.6412 88.912 30.6533C90.4506 31.9552 92.3443 32.7837 94.5931 33.2571V21.0665C94.7115 19.6462 95.0665 18.6993 95.895 17.9892C96.8419 17.2791 98.0254 16.924 99.6824 16.924L130.81 17.0424V9.58594H98.7356ZM129.982 29.4697C128.443 28.1678 126.668 27.221 124.3 26.7475C124.3 26.7475 124.3 36.6894 124.3 38.7015C124.3 40.4768 123.827 41.6604 122.999 42.4889C122.052 43.3174 120.868 43.6724 119.093 43.6724H86.3082V51.1289H120.158C124.419 51.1289 127.614 50.0637 129.982 47.9333C132.349 45.8029 133.532 42.7256 133.532 38.7015C133.532 34.559 132.349 31.4818 129.982 29.4697Z" fill="white"/>
<path d="M204.073 19.054C206.622 19.054 208.689 16.9874 208.689 14.4381C208.689 11.8889 206.622 9.82227 204.073 9.82227C201.524 9.82227 199.457 11.8889 199.457 14.4381C199.457 16.9874 201.524 19.054 204.073 19.054Z" fill="white"/>
<path d="M218.867 9.82227L204.073 31.4814L189.16 9.82227H177.916L199.575 40.5948V50.6551H208.807V40.4765L230.348 9.82227H218.867Z" fill="white"/>
<path d="M168.328 9.82227H154.244L135.898 50.6551H145.84L160.872 17.042H161.582L176.731 50.7734H186.673L168.328 9.82227Z" fill="white"/>
<path d="M318.523 9.82227H304.439L286.094 50.6551H296.036L311.185 16.9236H311.895L327.045 50.6551H336.987L318.523 9.82227Z" fill="white"/>
<path d="M161.227 50.7747C163.777 50.7747 165.843 48.7081 165.843 46.1589C165.843 43.6096 163.777 41.543 161.227 41.543C158.678 41.543 156.611 43.6096 156.611 46.1589C156.611 48.7081 158.678 50.7747 161.227 50.7747Z" fill="white"/>
<path d="M109.507 34.9134C112.056 34.9134 114.122 32.8468 114.122 30.2975C114.122 27.7482 112.056 25.6816 109.507 25.6816C106.957 25.6816 104.891 27.7482 104.891 30.2975C104.891 32.8468 106.957 34.9134 109.507 34.9134Z" fill="white"/>
<path d="M311.54 50.7747C314.089 50.7747 316.156 48.7081 316.156 46.1589C316.156 43.6096 314.089 41.543 311.54 41.543C308.99 41.543 306.924 43.6096 306.924 46.1589C306.924 48.7081 308.99 50.7747 311.54 50.7747Z" fill="white"/>
<path d="M238.751 50.7747C241.3 50.7747 243.367 48.7081 243.367 46.1589C243.367 43.6096 241.3 41.543 238.751 41.543C236.201 41.543 234.135 43.6096 234.135 46.1589C234.135 48.7081 236.201 50.7747 238.751 50.7747Z" fill="white"/>
<path d="M5.23537 22.606C2.27648 25.5649 0.619494 28.6421 0.382782 31.7194C0.14607 34.7966 1.44798 37.7556 4.28853 40.5961C7.12907 43.4366 10.088 44.7385 13.1652 44.5018C15.1773 44.3835 17.071 43.6733 19.083 42.3714L10.443 33.7314C9.49619 32.6662 9.14112 31.7194 9.25948 30.6542C9.37783 29.4706 9.96961 28.2871 11.1532 27.2219L33.1674 5.20766L27.9597 0L5.23537 22.606ZM41.3339 14.5578C39.3219 14.6761 37.4282 15.3863 35.4161 16.5698C35.4161 16.5698 42.5175 23.6712 43.8194 24.9731C45.003 26.1567 45.5947 27.4586 45.5947 28.6421C45.4764 29.8257 44.8846 31.0093 43.7011 32.1928L20.5033 55.3906L25.711 60.5982L49.6189 36.8087C52.5777 33.8498 54.2347 30.7725 54.3531 27.5769C54.4714 24.3813 53.1695 21.4224 50.329 18.5819C47.4884 15.7413 44.5295 14.3211 41.3339 14.5578Z" fill="white"/>
<path d="M27.487 34.3236C30.0363 34.3236 32.1029 32.257 32.1029 29.7077C32.1029 27.1584 30.0363 25.0918 27.487 25.0918C24.9377 25.0918 22.8711 27.1584 22.8711 29.7077C22.8711 32.257 24.9377 34.3236 27.487 34.3236Z" fill="white"/>
</svg>
